<svg viewBox="0 0 18 38" fill="none" xmlns="http://www.w3.org/2000/svg">
<path d="M7.18817 2.2935C6.51397 3.15821 6.10277 4.27853 6.2184 5.45283C6.32255 6.50911 6.90508 7.28809 7.47635 7.93345L6.63042 8.32612C6.63042 8.32612 6.23029 8.54054 5.93526 8.91167C5.64023 9.2829 5.35214 9.85364 5.21084 10.6599C5.0271 11.7069 5.47443 12.6296 5.98823 13.3985C6.50182 14.1672 7.1384 14.8318 7.61918 15.3478C8.17087 15.9035 8.33733 16.7925 7.79657 16.9679C7.3068 17.1171 6.80827 16.6573 6.7416 16.257C6.68174 15.8995 6.89172 15.0081 6.89172 15.0081L5.60497 15.7024C5.29829 13.766 3.74488 13.158 3.74488 13.158C3.74488 13.158 4.05521 14.4789 3.48894 15.5203C2.9227 16.5618 2.72374 16.8222 2.20644 17.6284C1.68889 18.4346 1.01974 19.4679 0.427565 20.8803C-0.8957 24.0344 1.19908 26.8232 1.19908 26.8232L1.95244 27.8351C1.76296 28.2844 1.53648 29.1829 1.53648 30.2159C1.53648 34.3649 4.92865 37.7544 9.07493 37.7544C13.2212 37.7544 16.616 34.3622 16.616 30.2159C16.616 29.061 16.2956 28.0002 15.827 27.0196L16.2043 26.6423C16.2043 26.6423 16.8108 26.0464 17.2198 25.1404C17.6369 24.2169 17.8996 22.9971 17.6049 21.817C17.4149 21.0571 16.9524 20.394 16.4716 19.6547C15.9908 18.9154 15.6786 18.1952 15.5936 17.8782C15.5087 17.5612 15.5899 16.6428 15.7671 16.3091C15.9442 15.9754 16.6003 15.0623 16.6003 15.0623C16.6003 15.0623 15.0341 14.9535 14.2892 15.574C14.3274 14.7734 14.2308 14.2026 13.7979 13.5514C13.365 12.9003 11.9327 12.6685 11.9327 12.6685C12.1986 13.5723 12.2746 14.668 11.7306 14.9662C11.1865 15.2645 10.7388 14.7413 10.7656 14.3767C10.7924 14.0124 10.9684 13.6777 11.1376 13.5348C12.0587 12.7576 13.0271 11.3674 12.8797 9.5393C12.7841 8.35469 11.9997 7.52809 11.2623 6.75572C10.5248 5.98388 10.0263 5.39699 9.67493 4.8834C9.15685 4.12611 9.27695 3.06719 9.56763 2.23212C9.85832 1.39704 11.2105 -0.00561523 11.2105 -0.00561523C8.94503 0.590529 7.86071 1.42851 7.18598 2.29323L7.18817 2.2935ZM8.14257 8.7074C8.49925 9.0834 8.86602 9.42817 8.93191 9.73219C8.9978 10.0362 8.99863 10.566 8.6633 10.6676C8.32806 10.7691 7.89756 10.4579 7.85523 10.0235C7.81289 9.58918 8.00283 9.13977 8.14257 8.70714V8.7074ZM4.97531 17.9155C5.05948 18.3171 5.26375 18.672 5.42092 19.0189C5.61564 19.4245 5.37876 19.9248 4.90703 19.905C4.43525 19.8851 4.30988 19.1191 4.53823 18.6598C4.65349 18.4315 4.81893 18.1568 4.97531 17.9158V17.9155ZM13.1462 18.2865C13.1978 18.835 13.3904 19.2999 13.5587 19.6735C13.8503 20.4017 14.0532 21.7511 13.1332 21.8289C12.2132 21.9069 12.1086 20.5879 12.3105 19.8063C12.4407 19.3221 12.7593 18.8075 13.1462 18.2865V18.2865Z" fill="white"/>
<path d="M8.77577 1.94946C8.77577 1.94946 7.09876 3.67412 7.26414 5.35222C7.42954 7.02951 9.41373 8.2099 9.95775 9.22596C10.5012 10.2418 9.74523 12.2265 8.1624 11.565C6.57956 10.9035 7.14637 9.15531 7.14637 9.15531C7.14637 9.15531 6.48486 9.46251 6.24857 10.8091C6.01231 12.1556 7.45358 13.6667 8.42228 14.7066C9.39098 15.7462 9.69791 17.2108 8.23313 17.8501C6.76831 18.488 6.15419 16.7869 6.15419 16.7869C6.15419 16.7869 5.94161 17.3304 5.98881 17.7082C6.03607 18.0863 6.8866 19.1022 6.48494 20.0473C6.08328 20.9925 4.31148 21.3703 3.67486 20.1181C3.0369 18.866 4.3837 17.4954 4.76155 16.6677C5.13966 15.8409 4.71459 14.5179 4.71459 14.5179C4.71459 14.5179 4.73814 15.2034 4.38384 16.243C4.02954 17.2827 2.51735 18.5816 1.40709 21.2281C0.296824 23.8741 2.06859 26.2608 2.06859 26.2608C2.06859 26.2608 3.43842 24.9846 3.65089 25.3625C3.78549 25.6018 3.46419 26.6569 3.20425 27.4256C2.81026 28.2718 2.58874 29.2137 2.58874 30.2065C2.58874 33.8527 5.55755 36.8189 9.20109 36.8189C12.8446 36.8189 15.8161 33.8501 15.8161 30.2065C15.8161 28.4519 15.1266 26.854 14.0063 25.6686C13.9473 25.4386 13.9822 25.2074 14.2445 25.0553C14.9473 24.6478 15.6738 25.9766 15.6738 25.9766C15.6738 25.9766 16.17 25.4805 16.5007 24.7481C16.8315 24.0157 17.0442 22.8819 16.8315 22.0306C16.6187 21.1794 15.083 19.0777 14.634 18.3924C14.185 17.7071 14.9176 16.5018 14.9176 16.5018C14.9176 16.5018 14.3038 17.0456 14.1384 17.8963C13.973 18.7467 15.0592 19.6209 14.9647 21.2752C14.8702 22.929 12.5077 23.496 11.7525 21.8423C10.9966 20.1885 11.6581 18.8179 12.6032 17.5901C13.5483 16.3616 13.0522 14.9918 13.0522 14.9918C13.0522 14.9918 12.2253 17.0233 10.8079 16.0311C9.39042 15.0388 9.90983 13.456 10.6658 12.8188C11.4217 12.1809 12.2015 11.0706 12.0832 9.60662C11.9651 8.14179 9.6738 6.60605 8.75193 5.25924C7.8306 3.91269 8.77519 1.95174 8.77519 1.95174L8.77577 1.94946Z" fill="#1A1A1A"/>
<path d="M9.09996 36.1431C12.3877 36.1431 15.053 33.4778 15.053 30.1901C15.053 26.9023 12.3877 24.2371 9.09996 24.2371C5.81221 24.2371 3.14696 26.9023 3.14696 30.1901C3.14696 33.4778 5.81221 36.1431 9.09996 36.1431Z" fill="#FF3353"/>
<path d="M7.70947 30.1943C7.4751 30.0098 7.29639 29.8149 7.17334 29.6099C7.05029 29.4048 6.98877 29.1484 6.98877 28.8408C6.98877 28.6445 7.01514 28.4629 7.06787 28.2959C7.12354 28.1289 7.20557 27.9736 7.31396 27.8301C7.52197 27.5576 7.7959 27.3511 8.13574 27.2104C8.30859 27.1372 8.48438 27.083 8.66309 27.0479C8.84473 27.0098 9.03076 26.9907 9.22119 26.9907C9.60498 26.9907 9.96826 27.0479 10.311 27.1621C10.6567 27.2764 10.938 27.458 11.1548 27.707C11.3716 27.9531 11.48 28.2534 11.48 28.6079C11.48 29.2817 11.1768 29.7856 10.5703 30.1196C10.9424 30.3511 11.2295 30.5957 11.4316 30.8535C11.6338 31.1113 11.7349 31.4189 11.7349 31.7764C11.7349 32.0693 11.6616 32.3447 11.5151 32.6025C11.3687 32.8604 11.1665 33.0859 10.9087 33.2793C10.6509 33.4727 10.3579 33.625 10.0298 33.7363C9.70166 33.8447 9.37793 33.8989 9.05859 33.8989C8.62793 33.8989 8.21191 33.8301 7.81055 33.6924C7.41211 33.5518 7.08398 33.3408 6.82617 33.0596C6.56836 32.7754 6.43945 32.4385 6.43945 32.0488C6.43945 31.8379 6.47021 31.6372 6.53174 31.4468C6.59326 31.2534 6.68115 31.0791 6.79541 30.9238C6.9126 30.7686 7.05322 30.6265 7.21729 30.4976C7.38135 30.3687 7.54541 30.2676 7.70947 30.1943ZM8.64551 28.8408C8.64844 29.1396 8.69678 29.3711 8.79053 29.5352C8.88721 29.6963 9.02197 29.79 9.19482 29.8164C9.35303 29.8164 9.48047 29.7622 9.57715 29.6538C9.67383 29.5425 9.74414 29.4062 9.78809 29.2451C9.83203 29.0811 9.854 28.9111 9.854 28.7354C9.854 28.4482 9.80859 28.2241 9.71777 28.063C9.62988 27.9019 9.50098 27.8081 9.33105 27.7817H9.27393C9.1626 27.7817 9.06006 27.8271 8.96631 27.918C8.87256 28.0088 8.79346 28.1333 8.729 28.2915C8.67334 28.4497 8.64551 28.6123 8.64551 28.7793V28.8408ZM8.40381 31.9565V32.0137C8.40381 32.1543 8.41699 32.2832 8.44336 32.4004C8.47266 32.5176 8.51807 32.6362 8.57959 32.7563C8.69678 32.9849 8.87549 33.0991 9.11572 33.0991C9.35596 33.0991 9.53906 32.9761 9.66504 32.73C9.79102 32.481 9.854 32.1997 9.854 31.8862C9.854 31.7896 9.84521 31.6987 9.82764 31.6138C9.81299 31.5259 9.78809 31.4336 9.75293 31.3369C9.7002 31.1641 9.61963 31.022 9.51123 30.9106C9.40283 30.7993 9.26807 30.7437 9.10693 30.7437C8.96631 30.7437 8.84326 30.8008 8.73779 30.915C8.63232 31.0293 8.54883 31.1831 8.4873 31.3765C8.46094 31.4702 8.44043 31.5654 8.42578 31.6621C8.41113 31.7559 8.40381 31.854 8.40381 31.9565Z" fill="black"/>
</svg>
