<svg viewBox="0 0 60 60" xmlns="http://www.w3.org/2000/svg">
<path d="M16.3696 8.86708C14.9316 8.83383 11.4465 8.32627 9.51538 6.90164C7.64948 5.52515 6.01538 2.63934 6.01538 1C5.93651 1.12068 5.85644 1.24226 5.77558 1.36503C4.31863 3.57726 2.60672 6.17662 3.08043 10.8361C3.45359 14.5064 5.75356 18.2921 6.91118 19.6535C5.96599 22.195 5.51538 24.916 5.51538 27.6754C5.51538 32.0131 6.95538 35.3475 8.28538 37.7082C8.716 38.4598 9.13404 39.1123 9.4784 39.6499C9.66584 39.9425 9.83145 40.201 9.96538 40.4229C10.0058 40.4935 10.0422 40.5562 10.0747 40.6122C10.2449 40.9055 10.3096 41.0169 10.2958 41.1177C10.2874 41.1795 10.2495 41.2373 10.1884 41.3305C10.0972 41.4695 9.95428 41.6873 9.78038 42.1147C9.36838 43.1278 8.91438 44.977 9.59538 46.8065C10.1414 48.2721 11.3754 49.6393 12.5554 50.2C13.7354 50.7596 14.4754 51.0744 15.4254 51.4492C17.1254 52.1151 18.0054 52.4623 18.5554 52.8459C18.5515 52.9117 18.547 52.9803 18.5422 53.0521L18.5422 53.0521C18.5199 53.3889 18.4932 53.793 18.51 54.2819L18.5124 54.3534C18.5314 54.9343 18.5564 55.6986 19.209 56.6524C20.219 58.1278 21.749 58.5114 22.899 58.541C23.539 58.5595 24.159 58.5298 24.809 58.301C25.39 59.2816 26.599 59.5403 27.629 59.56C28.689 59.5711 29.879 59.1105 30.869 58.1731C31.597 59.1183 32.729 59.3633 33.829 59.3731C34.522 59.377 35.189 59.295 35.929 59.0239C36.344 58.8714 36.84 58.5921 37.309 58.1711L37.3708 58.1879C37.7889 58.3015 38.204 58.4142 38.589 58.418C39.151 58.4219 39.699 58.36 40.329 58.1269C40.961 57.8937 41.819 57.4639 42.359 56.3465C42.8522 55.2585 42.8141 54.1705 42.7741 53.0259C42.766 52.7943 42.7579 52.5603 42.754 52.3236C43.126 52.1347 43.586 51.9164 44.214 51.7069C44.3676 51.6556 44.6101 51.5983 44.9173 51.5258L44.9175 51.5257C45.606 51.3631 46.6192 51.1239 47.684 50.7036C49.224 50.0957 51.304 48.6282 51.754 46.2085C52.076 44.4577 51.6955 42.8642 51.345 41.9888C51.1974 41.5397 51.0877 41.3388 51.0288 41.2307C50.9949 41.1686 50.9777 41.1371 50.9796 41.1069C50.9816 41.0757 51.0038 41.0458 51.0488 40.9852C51.0991 40.9174 51.178 40.8111 51.2891 40.6216C51.3747 40.4791 51.4721 40.3207 51.5789 40.147C51.9527 39.5394 52.4413 38.745 52.9391 37.7888C54.2191 35.3298 55.5291 31.7396 55.5291 26.8708C55.5291 23.8673 54.9234 21.2827 54.0346 19.1256C55.2554 17.4687 57.1178 14.1066 57.4503 10.8361C57.924 6.17662 56.2121 3.57726 54.7552 1.36503C54.6743 1.24226 54.5942 1.12068 54.5154 1C54.5154 2.63934 52.8813 5.52515 51.0154 6.90164C49.2163 8.22882 46.0686 8.7601 44.4838 8.85346C40.3664 6.60065 35.7334 5.59913 31.5791 5.45768L31.6154 5.4262C27.9254 5.32095 23.4754 5.81866 18.8154 7.70817C17.9554 8.05986 17.1405 8.44717 16.3696 8.86708Z" fill="#1E1E1E"/>
<path d="M44.2154 12.3115V15.6852L38.2554 15.8092L41.2554 20.9043L37.4354 21.8771L42.7754 22.1465L42.3744 17.9662L46.1144 18.1944L46.4314 13.9748C46.4314 13.9748 52.5814 18.3321 52.5814 27.0567C52.5814 35.7813 48.0414 39.2535 48.0214 41.0239C48.0029 42.8043 49.3114 43.3256 48.8544 45.8239C48.3944 48.3223 45.0444 48.5485 43.2344 49.1485C41.4244 49.7515 39.9344 50.5452 39.8244 51.2239C39.7194 51.9046 39.9744 54.6764 39.6904 55.2665C39.4064 55.8587 37.7204 55.8823 37.3904 55.2045C37.0544 54.5268 37.7914 51.8504 36.3104 51.8504C34.8294 51.8504 35.7714 55.1651 35.4654 56.011C35.1594 56.855 32.4554 56.9573 32.0654 55.8665C31.6714 54.7747 32.6784 52.0599 30.5654 52.0599C28.4554 52.0599 29.6674 55.0206 29.2154 56.073C28.7614 57.1255 26.3954 57.1156 26.1754 56.0314C25.9504 54.9494 26.6194 51.8117 25.2884 51.8117C23.9584 51.8117 24.5274 55.0183 24.1484 55.4806C23.7684 55.936 22.1584 56.0816 21.5684 55.2111C20.9764 54.3416 21.8644 51.8963 21.0614 51.198C20.2584 50.4937 18.6814 49.6045 16.4514 48.7291C14.0914 47.8045 13.0514 48.074 12.2714 45.9848C11.4924 43.8898 13.1584 42.6307 13.1584 40.9783C13.1584 38.9422 8.36841 35.3521 8.36841 27.8963C8.36841 20.4012 11.5984 13.9291 19.8684 10.5848C28.1784 7.19141 36.0684 8.88321 38.7684 9.70648C41.5184 10.5268 44.1484 12.3622 44.1484 12.3622L44.2154 12.3115Z" fill="#F2F2F2"/>
<path d="M31.3153 10.3442C29.5053 10.3219 27.5753 10.5291 25.6053 11.0996C16.6053 13.7062 13.7053 19.3816 12.7053 22.116C11.7333 24.8111 11.1453 28.3324 11.4353 31.1455C11.7313 33.9586 13.4653 37.48 13.8453 39.6341C13.924 42.5455 11.6853 43.9914 12.2853 46.6668C13.0643 48.7619 14.1053 48.4865 16.4653 49.4111C18.6953 50.2855 20.2753 51.1816 21.0753 51.8799C21.8783 52.5842 20.9903 55.0275 21.5823 55.8931C22.1743 56.7626 23.7823 56.618 24.1623 56.1616C24.5423 55.7062 23.9723 52.4927 25.3023 52.4927C26.6323 52.4927 25.9643 55.6304 26.1893 56.7124C26.4143 57.7944 28.7793 57.814 29.2293 56.7544C29.6833 55.7019 28.4693 52.7413 30.5793 52.7413C32.6893 52.7413 31.6893 55.456 32.0793 56.5478C32.4733 57.6396 35.1793 57.5413 35.4793 56.6924C35.7853 55.8485 34.8453 52.5318 36.3243 52.5318C37.8043 52.5318 37.0663 55.2072 37.4043 55.8859C37.7403 56.5636 39.4243 56.54 39.7043 55.9483C39.9883 55.3562 39.732 52.5844 39.8373 51.9057C39.9423 51.2251 41.4273 50.4303 43.2473 49.8303C44.5173 49.4073 46.5473 49.1674 47.7973 48.2074C48.4453 45.9549 46.7173 43.6434 46.7173 41.8926C46.7173 39.6598 52.3373 34.2697 51.1973 26.9418C50.0573 19.5746 47.5673 17.9123 47.5673 17.9123L47.0603 19.9778L43.1303 19.2323L43.2913 23.2847L37.4513 22.5647L41.2713 21.592L36.5413 15.6313L42.8413 15.2172L42.7997 13.5156C42.7997 13.5156 37.7997 10.486 31.2997 10.3975L31.3153 10.3442Z" fill="#DCDCDC"/>
<path d="M24.4154 11.3279C16.3954 14.082 13.7154 19.3443 12.8154 21.9508C11.8434 24.6459 11.2554 28.1672 11.5454 30.9804C11.8414 33.7935 13.5754 37.3148 13.9554 39.4689C13.9729 41.8885 12.5554 43.541 12.7954 45.8328C12.9434 47.1607 13.4924 47.623 15.1354 48.2033C16.7854 48.7836 21.3854 50.6426 21.8554 51.6853C22.1904 52.4308 21.9984 54.7148 21.8656 55.9443C22.5516 56.5807 23.9156 56.4263 24.2656 56.0101C24.6456 55.5547 24.0756 52.3412 25.4056 52.3412C26.7356 52.3412 26.0676 55.4789 26.2926 56.5609C26.5176 57.6429 28.8826 57.6625 29.3326 56.6029C29.7866 55.5504 28.5726 52.5898 30.6826 52.5898C32.7926 52.5898 31.7926 55.3045 32.1826 56.3964C32.5766 57.4882 35.2826 57.3898 35.5826 56.5409C35.8886 55.697 34.9486 52.3803 36.4276 52.3803C37.9076 52.3803 37.1696 55.0557 37.5076 55.7344C37.8436 56.4121 39.5276 56.3885 39.8076 55.7968C40.0916 55.2047 39.8353 52.4329 39.9406 51.7542C40.0456 51.0736 41.5306 50.2788 43.3506 49.6788C44.6206 49.2559 46.6506 49.0158 47.9006 48.0558C48.3866 46.364 47.5376 44.6427 47.0826 43.1476C46.1446 41.4755 44.7726 39.3116 44.9626 38.2985C45.2166 36.9313 45.2576 29.6821 44.7506 27.9706C44.2436 26.269 42.7606 23.8296 38.8806 24.1149C34.9906 24.404 22.7806 29.6624 21.2806 22.0001C20.2206 16.6395 22.8106 13.0296 24.4606 11.3772L24.4154 11.3279Z" fill="#B3B3B3"/>
<path d="M48.0154 25.0983C48.4384 27.7934 48.4384 30.9803 47.6774 32.1409C46.9164 33.3016 46.5774 32.8039 45.7774 32.1825C44.9744 31.5609 41.4274 28.7006 37.6674 29.9497C33.9074 31.1891 32.7674 34.1301 33.1074 37.4055C33.4454 40.6809 36.8274 42.5399 39.6174 42.1661C42.4074 41.7933 44.1374 41.7107 44.3074 42.7464C44.4764 43.7792 44.5604 44.9005 42.6174 46.1005C40.6774 47.3005 38.4374 49.6612 38.4374 49.8284C38.4374 49.9937 44.0974 48.1268 45.4474 47.4284C46.7974 46.7242 48.1274 45.8153 47.5974 43.7005C47.0694 41.5858 45.9074 41.0251 47.1744 38.5071C48.4414 35.9891 49.9444 31.5333 49.8444 28.1792C49.7475 24.8153 48.3244 20.9793 47.9044 21.0383C47.4804 21.0915 47.9753 24.835 48.0174 25.1202L48.0154 25.0983Z" fill="#F2F2F2"/>
<path d="M16.3154 14.2787C15.8084 13.6157 10.7354 19.7082 10.7354 27.0655C10.7354 34.3934 14.0754 36.8426 14.4954 39.0655C14.9184 41.2983 13.0854 43.295 13.8144 45.036C14.5464 46.777 17.1744 47.6524 19.0544 47.918C20.9344 48.1836 23.2044 50.1016 23.2544 50.6721C23.2992 51.2436 23.0344 55.1869 23.3142 55.3246C23.5932 55.4701 24.1362 55.0757 24.1362 55.0757C24.1362 55.0757 24.2372 53.4626 24.5242 52.2822C24.8382 50.9937 26.9142 50.1478 27.1042 51.0036C27.2982 51.8672 27.164 54.6036 27.6122 54.6036C28.0602 54.6036 28.1352 50.797 28.1952 50.079C28.255 49.3619 26.8852 48.6921 26.4152 48.82C25.9522 48.9518 25.5342 50.1675 24.5452 49.8331C23.5592 49.4967 23.1452 47.8167 23.0052 47.5216C22.8712 47.2295 19.7452 48.1216 17.4352 46.9796C15.1152 45.8387 15.6852 40.5764 17.5992 40.2911C19.5092 39.999 24.7092 41.3042 26.8292 39.219C28.9492 37.1436 29.0592 33.0714 26.7694 31.3305C24.4794 29.5895 21.5894 29.7665 19.4194 30.5396C17.2494 31.3128 16.1294 33.7757 14.5794 33.3036C13.0294 32.8354 11.8494 28.6019 12.2594 24.0085C12.6774 19.415 16.2994 14.3003 16.2994 14.3003L16.3154 14.2787Z" fill="#4D4D4D"/>
<path d="M20.6154 31.9836C16.8954 32.0348 15.4454 36.1836 15.9954 37.4819C16.5654 38.8196 17.5354 39.5082 20.0554 39.7443C22.5654 39.9724 26.1854 39.1019 26.5254 36.6164C26.8634 34.1278 24.9854 32.2295 20.9854 32.0032C20.8604 31.9954 20.7384 31.9921 20.6184 31.9954L20.6154 31.9836ZM39.9154 32.1075C37.0154 31.9856 35.0654 34.2321 34.9854 35.4124C34.8958 36.6714 35.2554 39.1501 38.8654 39.7796C42.4754 40.4023 45.2554 38.6091 45.2554 36.6124C45.2554 34.6255 43.7354 32.6485 40.5054 32.1567C40.3034 32.127 40.1054 32.1076 39.9124 32.0994L39.9154 32.1075ZM30.6054 37.1239C29.7464 37.0343 26.8854 44.4026 27.5454 44.7862C28.2054 45.1669 32.9354 45.2869 33.4654 44.7862C33.9924 44.2855 31.4754 37.2124 30.6154 37.1239H30.6054Z" fill="#1E1E1E"/>
</svg>
