<svg version="1.1" viewBox="0 0 14 14" xmlns="http://www.w3.org/2000/svg" xmlns:xlink="http://www.w3.org/1999/xlink">
 <defs>
  <clipPath id="patternClipPath">
   <rect id="clipPathRect" width="16" height="16" color="#000000" fill="#ff0"/>
  </clipPath>
 </defs>
 <g transform="translate(0 -293)">
  <g id="fullPattern" transform="matrix(.88 0 0 .88 0 293)" clip-path="url(#patternClipPath)" opacity=".1" stroke-width="1.1">
   <g id="designTop" transform="scale(.16)" stroke-width="1.3">
    <path d="m197-131-271 271 8.9 8.8 271-271zm42 6.2-271 271 8.9 8.8 271-271zm42 6.2-271 271 8.9 8.8 271-271zm42 6.2-271 271 8.9 8.8 271-271zm42 6.2-271 271 8.9 8.8 271-271z" color="#000000" color-rendering="auto" dominant-baseline="auto" image-rendering="auto" opacity="1" shape-rendering="auto" solid-color="#000000" style="font-feature-settings:normal;font-variant-alternates:normal;font-variant-caps:normal;font-variant-ligatures:normal;font-variant-numeric:normal;font-variant-position:normal;isolation:auto;mix-blend-mode:normal;shape-padding:0;text-decoration-color:#000000;text-decoration-line:none;text-decoration-style:solid;text-indent:0;text-orientation:mixed;text-transform:none;white-space:normal"/>
   </g>
   <g id="designBottomGenerator">
    <use transform="translate(-16,-16)" width="100%" height="100%" xlink:href="#designBottom"/>
    <use transform="translate(0,-16)" width="100%" height="100%" xlink:href="#designBottom"/>
    <use transform="translate(16,-16)" width="100%" height="100%" xlink:href="#designBottom"/>
    <use transform="translate(-16)" width="100%" height="100%" xlink:href="#designBottom"/>
    <use width="100%" height="100%" xlink:href="#designBottom"/>
    <use transform="translate(16)" width="100%" height="100%" xlink:href="#designBottom"/>
    <use transform="translate(-16,16)" width="100%" height="100%" xlink:href="#designBottom"/>
    <use transform="translate(0,16)" width="100%" height="100%" xlink:href="#designBottom"/>
    <use transform="translate(16,16)" width="100%" height="100%" xlink:href="#designBottom"/>
   </g>
   <g id="designTopGenerator">
    <use transform="translate(-16,-16)" width="100%" height="100%" xlink:href="#designTop"/>
    <use transform="translate(0,-16)" width="100%" height="100%" xlink:href="#designTop"/>
    <use transform="translate(16,-16)" width="100%" height="100%" xlink:href="#designTop"/>
    <use transform="translate(-16)" width="100%" height="100%" xlink:href="#designTop"/>
    <use width="100%" height="100%" xlink:href="#designTop"/>
    <use transform="translate(16)" width="100%" height="100%" xlink:href="#designTop"/>
    <use transform="translate(-16,16)" width="100%" height="100%" xlink:href="#designTop"/>
    <use transform="translate(0,16)" width="100%" height="100%" xlink:href="#designTop"/>
    <use transform="translate(16,16)" width="100%" height="100%" xlink:href="#designTop"/>
   </g>
  </g>
 </g>
</svg>
