<svg viewBox="0 0 2061 189" xmlns="http://www.w3.org/2000/svg">
<path opacity="0.2" d="M804.96 11.74C776.156 12.4657 760.734 20.245 750.528 20.7742C740.171 21.3109 718.927 16.6918 705.924 16.9186C693.072 17.1401 681.127 17.8333 668.729 21.6058C656.368 25.3858 640.19 29.0524 624.125 29.8084C608.211 30.5644 549.281 28.9238 519.419 28.4211C489.632 27.9146 402.239 30.4434 395.813 31.1994C391.541 31.6908 377.631 40.2714 365.497 39.8934C353.137 39.5154 340.889 29.9142 340.889 29.9142C340.889 29.9142 324.862 34.0722 315.488 35.8488C306.113 37.6254 294.131 37.3646 269.372 37.8673C244.613 38.3739 231.647 43.6129 211.538 44.6713C192.978 45.6806 156.35 38.0942 150.302 40.8914C143.989 43.6697 145.728 49.8877 146.144 54.9151C146.522 59.6023 150.831 71.8495 150.831 71.8495C150.831 71.8495 132.196 71.7909 125.203 73.2368C118.21 74.6845 110.309 82.838 104.488 86.8826C98.667 90.9272 97.155 89.4076 89.595 89.4076C82.035 89.4076 71.0352 97.9882 63.4374 100.521C55.8774 103.046 33.4998 97.236 19.9674 97.7425C6.43502 98.249 -1.88098 108.364 -1.88098 108.364C-1.88098 108.364 3.94022 107.102 9.23222 108.871C14.5242 110.64 24.4278 120.664 31.194 124.747C37.9602 128.829 47.8638 129.812 62.001 127.809C76.1382 125.786 94.7358 117.111 105.849 116.355C116.962 115.599 116.357 120.74 116.357 120.74C116.357 120.74 110.158 121.81 106.114 122.316C102.069 122.823 96.7392 124.69 91.9764 126.21C87.1758 127.726 70.506 131.955 70.506 131.955C70.506 131.955 83.0178 135.482 93.1104 135.735C103.203 135.988 109.364 136.049 109.364 136.049C109.364 136.049 105.509 139.372 99.9522 140.887C94.3956 142.403 88.3854 141.613 74.5128 140.604C60.6402 139.595 51.606 140.634 42.2694 146.69C32.9328 152.738 16.5276 156.593 16.5276 156.593C16.5276 156.593 22.3488 159.372 29.6442 160.128C36.9774 160.884 44.991 159.953 58.1454 155.667C71.262 151.358 77.0454 155.885 77.0454 155.885C77.0454 155.885 74.63 158.618 71.6022 160.875C68.5707 163.147 64.3446 170.968 58.5234 172.971C52.7022 174.993 40.0014 171.724 30.1356 174.252C20.2698 176.777 16.4898 181.812 16.4898 181.812C16.4898 181.812 30.8916 184.213 43.2522 186.726C55.6128 189.24 82.9422 190.506 97.3062 188.745C111.708 186.976 122.821 179.03 126.866 177.518C130.91 176.003 138.47 176.127 144.027 175.118C149.584 174.109 177.253 162.833 186.741 156.256C196.834 149.074 195.889 141.325 195.889 141.325L189.765 130.741C189.765 130.741 228.321 131.882 259.317 132.638C290.313 133.394 346.635 134.029 351.927 129.735C357.219 125.426 368.219 123.612 386.136 127.146C404.053 130.68 428.472 126.197 440.946 122.912C453.42 119.628 484.038 126.575 506.718 125.124C517.34 124.557 541.683 118.244 547.164 117.98C552.721 117.727 567.878 120.758 577.215 122.78C586.552 124.802 621.063 123.665 629.379 122.402C637.468 121.14 691.749 114.955 691.749 114.955C691.749 114.955 702.938 114.389 715.298 112.873C727.659 111.357 736.769 104.292 744.329 104.292C751.889 104.292 762.133 106.057 775.514 106.057C788.895 106.057 814.07 105.551 814.07 105.551C814.07 105.551 821.819 110.805 838.262 110.805C854.705 110.805 853.306 111.12 891.56 110.363C930.116 109.607 969.806 102.16 991.352 101.14C1012.82 100.13 1037.09 108.095 1064.68 107.83C1089.18 108.083 1124.79 110.862 1129.32 109.853C1133.86 108.843 1131.22 101.083 1135.26 100.327C1139.3 99.5709 1151.43 108.643 1163.3 107.131C1175.25 106.182 1200.88 103.597 1214.33 104.606C1227.72 105.615 1232.59 110.843 1249.49 109.104C1266.42 107.335 1297.87 111.947 1316.77 110.934C1335.71 109.924 1368.94 111.879 1391.99 115.923C1415.17 119.08 1437.35 123.861 1453.61 123.634C1478.37 123.295 1506.91 118.342 1506.91 118.342C1506.91 118.342 1508.74 121.65 1515.83 124.693C1522.9 127.724 1542.82 121.884 1557.41 122.894C1572.07 123.903 1589.73 125.316 1605.41 121.529C1621.06 117.749 1673.07 120.074 1713.52 120.83C1753.97 121.586 1764.93 124.232 1785.72 126.008C1806.43 127.777 1891.56 129.025 1891.56 129.025L1889.04 151.213C1889.04 151.213 1888.88 156.656 1894.14 160.777C1899.4 164.897 1916.94 168.752 1929.56 172.797C1942.19 176.842 1969.25 187.577 1980.59 183.797C1991.97 180.017 2002.06 179.11 2010.91 179.639C2019.75 180.145 2032.87 176.354 2032.87 176.354C2032.87 176.354 2019.45 172.903 2008.11 165.997C1996.77 159.091 1987.59 157.114 1969.18 155.262C1980.03 152.79 1982.18 153.103 1990.53 153.115C1990.53 153.115 1987.76 148.314 1979.91 145.29C1972.09 142.258 1964.64 141.245 1964.64 141.245C1964.64 141.245 1969.1 140.675 1975.64 141.497C1982.18 142.317 1987.06 140.805 1996.85 148.301C2010.34 158.658 2023.99 163.081 2023.99 163.081C2023.99 163.081 2014.05 155.294 2010.08 150.191C2006.11 145.088 2007.93 143.878 2001.35 136.054C1997 130.875 1991.86 128.002 1984.3 126.868C1991.37 127.719 1994.01 127.086 1999.57 127.828C2007.13 128.838 2035.93 129.847 2035.93 129.847C2035.93 129.847 2033.41 126.067 2029.35 124.026C2025.31 122.003 2017.11 119.603 2017.11 119.603C2017.11 119.603 2033.29 117.078 2046.4 115.823C2059.52 114.561 2058.65 93.332 2058.65 93.332C2058.65 93.332 2045.99 98.8886 2020.89 94.7231C1995.79 90.5651 1980.06 76.2767 1971.37 73.7441C1962.52 71.219 1945.36 73.7441 1945.36 73.7441C1945.36 73.7441 1945.62 68.4521 1946.12 60.0983C1946.63 51.7823 1943.59 50.2325 1932.21 50.0057C1920.83 49.7532 1914.03 54.0503 1891.38 54.8063C1868.74 55.5623 1829.01 45.1673 1816.16 42.6347C1803.27 40.1096 1784.86 40.2117 1774.2 40.4649C1763.55 40.7182 1759.8 36.1179 1752.73 35.6265C1745.67 35.12 1732.66 35.9675 1716.48 36.976C1700.31 37.9852 1661.67 38.9227 1639.37 34.3754C1617.15 29.8394 1601.84 30.5575 1575.49 30.9242C1548.35 31.3022 1473.43 31.5555 1467.38 31.3022C1461.33 31.0497 1467.13 26.5016 1456.76 26.993C1446.4 27.4996 1392.5 24.7175 1392.5 24.7175C1392.5 24.7175 1391.49 33.5627 1378.59 32.8067C1365.7 32.0507 1369.71 23.3189 1365.85 22.1849C1358.78 20.1626 1341.85 20.2911 1320.49 22.0601C1299.29 23.8291 1284.88 24.4566 1268.33 22.1849C1251.66 19.9131 1236.12 24.0824 1218.05 25.8477C1199.99 27.6129 1180.56 23.1941 1159.09 20.9337C1138.11 18.6619 1124.35 19.2932 1124.35 19.2932C1124.35 19.2932 1120.3 13.3586 1100.61 13.3586C1080.92 13.3586 992.879 22.1282 952.055 21.0698C911.231 20.0114 833.741 10.9394 804.635 11.6954L804.96 11.74ZM336.24 42.5092C338.671 42.6619 339.627 44.0401 336.845 44.4408C333.409 44.8603 332.233 42.7586 336.24 42.5092ZM1988.1 113.573C1988.1 113.573 1995.09 113.383 1993.85 115.214C1992.46 116.601 1988.1 113.573 1988.1 113.573ZM113.22 161.201C105.849 163.344 107.588 159.924 110.948 159.243C114.312 158.563 118.622 159.976 113.22 161.201Z" fill="black"/>
<path d="M808.74 0.400012C779.936 1.12577 764.514 8.90501 754.308 9.43421C743.951 9.97097 722.707 5.35179 709.704 5.57859C696.852 5.8001 684.907 6.49337 672.509 10.2658C660.148 14.0458 643.97 17.7124 627.905 18.4684C611.991 19.2244 553.061 17.5839 523.199 17.0811C493.412 16.5746 406.019 19.1034 399.593 19.8594C395.321 20.3508 381.411 28.9314 369.277 28.5534C356.917 28.1754 344.669 18.5742 344.669 18.5742C344.669 18.5742 328.642 22.7323 319.268 24.5089C309.893 26.2855 297.911 26.0246 273.152 26.5274C248.393 27.0339 235.427 32.273 215.318 33.3314C196.758 34.3407 160.13 26.7542 154.082 29.5514C147.769 32.3297 149.508 38.5478 149.924 43.5752C150.302 48.2624 154.611 60.5095 154.611 60.5095C154.611 60.5095 135.976 60.451 128.983 61.8968C121.99 63.3446 114.089 71.498 108.268 75.5426C102.447 79.5872 100.935 78.0677 93.3751 78.0677C85.8151 78.0677 74.8153 86.6483 67.2175 89.1809C59.6575 91.7059 37.2798 85.896 23.7475 86.4026C10.2151 86.9091 1.89905 97.0244 1.89905 97.0244C1.89905 97.0244 7.72025 95.7618 13.0122 97.5309C18.3042 99.2999 28.2078 109.324 34.974 113.407C41.7402 117.489 51.6439 118.472 65.7811 116.469C79.9183 114.446 98.5158 105.771 109.629 105.015C120.742 104.259 120.137 109.4 120.137 109.4C120.137 109.4 113.938 110.47 109.894 110.976C105.849 111.483 100.519 113.35 95.7565 114.87C90.9559 116.386 74.2861 120.615 74.2861 120.615C74.2861 120.615 86.7979 124.142 96.8905 124.395C106.983 124.648 113.144 124.709 113.144 124.709C113.144 124.709 109.289 128.032 103.732 129.547C98.1757 131.063 92.1654 130.273 78.2928 129.264C64.4202 128.255 55.386 129.294 46.0494 135.35C36.7128 141.398 20.3077 145.253 20.3077 145.253C20.3077 145.253 26.1288 148.032 33.4242 148.788C40.7574 149.544 48.7711 148.613 61.9255 144.327C75.0421 140.018 80.8255 144.545 80.8255 144.545C80.8255 144.545 78.41 147.278 75.3823 149.535C72.3507 151.807 68.1246 159.628 62.3034 161.631C56.4822 163.653 43.7815 160.384 33.9157 162.912C24.0499 165.437 20.2699 170.472 20.2699 170.472C20.2699 170.472 34.6716 172.873 47.0322 175.386C59.3928 177.9 86.7223 179.166 101.086 177.405C115.488 175.636 126.601 167.69 130.646 166.178C134.69 164.663 142.25 164.787 147.807 163.778C153.364 162.769 181.033 151.493 190.521 144.916C200.614 137.734 199.669 129.985 199.669 129.985L193.545 119.401C193.545 119.401 232.101 120.542 263.097 121.298C294.093 122.054 350.415 122.689 355.707 118.395C360.999 114.086 371.999 112.272 389.916 115.806C407.833 119.34 432.252 114.857 444.726 111.572C457.2 108.288 487.818 115.235 510.498 113.784C521.12 113.217 545.463 106.904 550.944 106.64C556.425 106.375 571.658 109.418 580.995 111.44C590.332 113.462 624.843 112.325 633.159 111.062C641.248 109.8 695.529 103.616 695.529 103.616C695.529 103.616 706.718 103.049 719.078 101.533C731.439 100.017 740.549 92.9522 748.109 92.9522C755.669 92.9522 765.913 94.7175 779.294 94.7175C792.675 94.7175 817.85 94.2109 817.85 94.2109C817.85 94.2109 825.599 99.4651 842.042 99.4651C858.485 99.4651 857.086 99.78 895.34 99.0229C933.896 98.2669 973.586 90.8202 995.132 89.7996C1016.6 88.7904 1040.87 96.7549 1068.46 96.4903C1092.96 96.7428 1128.57 99.5218 1133.1 98.5126C1137.64 97.5033 1135 89.743 1139.04 88.987C1143.08 88.231 1155.21 97.303 1167.08 95.791C1179.03 94.8422 1204.66 92.2567 1218.11 93.2659C1231.5 94.2752 1236.37 99.5029 1253.27 97.7641C1270.2 95.9951 1301.65 100.607 1320.55 99.5936C1339.49 98.5844 1372.72 100.539 1395.77 104.583C1418.95 107.74 1441.13 112.521 1457.39 112.294C1482.15 111.955 1510.69 107.002 1510.69 107.002C1510.69 107.002 1512.52 110.31 1519.61 113.353C1526.68 116.384 1546.6 110.544 1561.19 111.554C1575.85 112.563 1593.51 113.977 1609.19 110.189C1624.84 106.409 1676.85 108.734 1717.3 109.49C1757.75 110.246 1768.71 112.892 1789.5 114.668C1810.21 116.437 1895.34 117.685 1895.34 117.685L1892.82 139.873C1892.82 139.873 1892.66 145.317 1897.92 149.437C1903.18 153.557 1920.72 157.413 1933.34 161.457C1945.97 165.502 1973.03 176.237 1984.37 172.457C1995.75 168.677 2005.84 167.77 2014.69 168.299C2023.53 168.805 2036.65 165.014 2036.65 165.014C2036.65 165.014 2023.23 161.563 2011.89 154.657C2000.55 147.751 1991.37 145.774 1972.96 143.922C1983.81 141.45 1985.96 141.763 1994.31 141.775C1994.31 141.775 1991.54 136.974 1983.69 133.95C1975.87 130.919 1968.42 129.905 1968.42 129.905C1968.42 129.905 1972.88 129.335 1979.42 130.157C1985.96 130.977 1990.84 129.465 2000.63 136.961C2014.12 147.318 2027.77 151.741 2027.77 151.741C2027.77 151.741 2017.83 143.954 2013.86 138.851C2009.89 133.748 2011.71 132.538 2005.13 124.714C2000.78 119.535 1995.64 116.662 1988.08 115.528C1995.15 116.379 1997.79 115.746 2003.35 116.488C2010.91 117.498 2039.71 118.507 2039.71 118.507C2039.71 118.507 2037.19 114.727 2033.14 112.686C2029.09 110.663 2020.89 108.263 2020.89 108.263C2020.89 108.263 2037.07 105.738 2050.18 104.483C2063.3 103.221 2062.43 81.9921 2062.43 81.9921C2062.43 81.9921 2049.77 87.5487 2024.67 83.3831C1999.57 79.2176 1983.84 64.9367 1975.15 62.4041C1966.3 59.8791 1949.14 62.4041 1949.14 62.4041C1949.14 62.4041 1949.4 57.1121 1949.9 48.7583C1950.41 40.4423 1947.37 38.8925 1935.99 38.6657C1924.61 38.4132 1917.81 42.7103 1895.17 43.4663C1872.45 44.2223 1832.8 33.8273 1819.94 31.2947C1807.05 28.7697 1788.64 28.8717 1777.99 29.125C1767.33 29.3782 1763.58 24.778 1756.51 24.2866C1749.45 23.7801 1736.44 24.6275 1720.26 25.636C1704.09 26.6453 1665.45 27.5828 1643.15 23.0354C1620.93 18.4994 1605.62 19.2176 1579.27 19.5843C1552.13 19.9623 1477.21 20.2155 1471.16 19.9623C1465.11 19.7098 1470.91 15.1617 1460.54 15.6531C1450.18 16.1596 1396.28 13.3775 1396.28 13.3775C1396.28 13.3775 1395.27 22.2227 1382.37 21.4667C1369.48 20.7107 1373.49 11.9789 1369.63 10.8449C1362.56 8.8226 1345.63 8.95111 1324.27 10.7201C1303.07 12.4892 1288.66 13.1167 1272.11 10.8449C1255.44 8.57312 1239.9 12.7424 1221.83 14.5077C1203.77 16.273 1184.34 11.8542 1162.87 9.59375C1141.89 7.32197 1128.13 7.95321 1128.13 7.95321C1128.13 7.95321 1124.08 2.01864 1104.39 2.01864C1084.7 2.01864 996.659 10.7882 955.835 9.72981C915.389 8.68275 837.521 -0.400573 808.415 0.355427L808.74 0.400012ZM340.02 31.1692C342.451 31.3219 343.407 32.7001 340.625 33.1008C337.189 33.5204 336.013 31.4187 340.02 31.1692ZM1991.88 102.233C1991.88 102.233 1998.87 102.043 1997.63 103.874C1996.24 105.261 1991.88 102.233 1991.88 102.233ZM117 149.861C109.629 152.004 111.368 148.584 114.728 147.903C118.092 147.223 122.402 148.636 117 149.861Z" fill="#1A1A1A"/>
<path d="M188.82 121.36C188.82 121.36 193.885 128.164 193.885 129.676C193.885 131.192 181.147 133.721 174.191 132.579C167.236 131.441 164.59 129.294 171.288 125.246C179.982 119.992 188.828 121.315 188.828 121.315L188.82 121.36Z" fill="#9A061E"/>
<path d="M1897.38 117.58L1896.12 129.827C1896.12 129.827 1905.08 128.818 1909.76 128.565C1914.45 128.312 1922.5 128.691 1921.75 127.049C1920.99 125.408 1912.64 120.358 1909.01 119.489C1905.38 118.62 1897.4 117.595 1897.4 117.595L1897.38 117.58Z" fill="#9A061E"/>
<path d="M754.403 13.1764C739.377 13.2725 720.745 10.1212 711.83 10.4618C702.895 10.8104 684.584 10.9977 675.268 13.7774C665.912 16.5621 644.917 21.3703 628.99 22.1216C613.063 22.8809 553.061 21.743 522.809 21.2371C492.959 20.7312 406.612 23.511 402.605 23.511C398.308 23.511 381.369 31.9853 369.249 32.4862C357.128 32.987 344.106 23.0001 344.106 23.0001C344.106 23.0001 330.183 26.0352 320.867 27.8083C311.551 29.5813 299.531 29.8317 274.688 30.3426C249.946 30.8484 235.322 35.6515 215.388 37.4245C203.067 38.5164 190.445 36.1724 176.922 34.6298C174.048 34.3584 170.922 36.3127 170.391 36.9738C167.526 40.5499 165.293 59.5121 165.293 59.5121C165.293 59.5121 177.313 96.575 185.828 108.195C188.512 111.831 190.536 113.233 194.142 116.399C208.766 116.229 234.11 116.365 262.257 117.058C293.11 117.817 347.101 119.662 352.41 115.365C357.719 111.068 373.145 108.293 391.076 111.829C409.006 115.375 426.035 111.447 438.356 108.163C450.777 104.877 501.964 111.078 510.078 110.567C518.172 110.061 548.243 101.712 553.852 101.461C559.422 101.208 575.89 103.354 585.205 105.378C594.561 107.401 623.771 108.163 631.885 106.9C639.978 105.638 695.793 100.95 695.793 100.95C695.793 100.95 705.91 100.573 718.331 99.0572C730.752 97.5346 740.669 88.1387 748.282 88.1387C755.895 88.1387 767.915 89.7814 781.338 89.7814C794.761 89.7814 819.703 90.0339 819.703 90.0339C819.703 90.0339 829.57 95.7235 846.048 95.7235C862.526 95.7235 858.469 96.608 896.934 95.8487C935.4 95.0894 974.767 85.7316 996.203 84.7299C1017.74 83.7181 1041.28 91.8119 1068.83 91.5615C1093.37 91.8149 1124.72 92.448 1129.33 91.4363C1133.89 90.4245 1134.01 86.2474 1138.05 85.4862C1142.1 84.7269 1158.39 93.079 1170.31 91.5565C1182.23 90.0339 1207.27 90.104 1220.69 91.1147C1234.12 92.1264 1242.53 94.841 1259.46 93.078C1276.39 91.305 1302.93 96.9947 1321.97 95.983C1340.9 94.9713 1371.95 96.1082 1395.29 100.16C1418.53 104.207 1434.06 111.88 1458.8 111.379C1483.54 110.873 1515.19 102.524 1515.19 102.524C1515.19 102.524 1516.14 106.571 1523.23 109.606C1530.31 112.641 1548.17 107.583 1562.79 108.594C1577.42 109.606 1593.25 109.987 1608.87 106.19C1624.6 102.394 1679.19 104.608 1720.06 105.369C1760.93 106.13 1771.95 109.225 1792.68 110.998C1813.42 112.771 1883.74 110.429 1899.87 112.251C1910.18 113.433 1918.5 115.135 1923.91 117.099C1924.8 115.767 1927.63 111.539 1927.72 111.409C1928.44 110.337 1931.48 103.536 1932.37 100.29C1933.27 97.0748 1933.37 75.4481 1935.7 70.0389C1938.02 64.6698 1937.53 54.5126 1936.82 52.0083C1936.26 50.065 1933.05 46.5991 1931.59 42.993C1922.46 43.7042 1918.27 46.539 1898.53 47.1901C1875.8 47.9494 1835.23 36.3718 1822.1 34.2683C1808.98 32.1847 1790.05 32.5553 1779.43 32.8057C1768.81 33.0592 1764.01 28.1078 1756.89 27.5969C1749.81 27.091 1738.96 27.7592 1722.84 28.7689C1706.61 29.7806 1664.94 31.1529 1644.5 26.1645C1624.07 21.176 1611.15 22.8689 1584.5 23.1293C1558.16 24.3914 1474.31 23.2565 1468.3 23.7624C1462.23 23.509 1471.72 18.9542 1461.34 19.4651C1450.92 19.971 1400.24 17.9425 1400.24 17.9425C1400.24 17.9425 1397.2 27.048 1382.61 25.7858C1368.08 24.5237 1372.99 15.6687 1369.19 14.7671C1365.39 13.8816 1346.45 13.6352 1325.21 15.4012C1303.98 17.1672 1288.75 17.2944 1271.72 14.7671C1254.69 12.2398 1240.77 17.041 1222.54 18.814C1204.31 20.587 1183.37 15.7788 1162.03 13.505C1140.8 11.2311 1126.87 12.4933 1126.87 12.4933C1126.87 12.4933 1123.71 5.79188 1103.94 5.79188C1084.2 5.79188 995.752 13.2546 956.686 13.2546C918.02 13.2546 842.492 5.14076 815.446 4.64993C788.3 4.16311 769.769 12.924 754.743 13.0242L754.403 13.1764ZM339.699 30.606C339.913 30.5958 340.127 30.596 340.341 30.608C343.757 30.7973 345.78 34.7851 343.125 35.2259C343.125 35.2259 334.521 35.3521 333.89 34.2772C333.297 33.2655 336.484 30.7613 339.7 30.611L339.699 30.606ZM1951.43 66.0662C1951.43 66.0662 1952.12 70.2934 1951.58 74.4104C1951.05 78.5273 1946.76 91.7397 1945.5 98.2508C1944.25 104.762 1943.18 115.38 1938.88 123.093C1936.25 127.811 1922.86 139.02 1915.34 148.837C1920.25 150.189 1930.87 153.955 1938.48 156.289C1951.1 160.336 1972.54 169.912 1984.26 167.308C1992.29 165.535 2006.1 165.645 2014.91 166.146C2023.77 166.652 2030.04 165.739 2030.04 165.739C2030.04 165.739 2020.98 164.627 2011.11 158.677C2000.99 152.557 1987.67 150.243 1972.64 149.291C1957.61 148.34 1945.89 141.648 1945.89 141.648C1945.89 141.648 1964.13 140.176 1973.54 140.426C1982.9 140.68 1986.46 140.115 1986.46 140.115C1986.46 140.115 1983.96 138.202 1973.44 135.507C1962.92 132.812 1947.9 126.973 1947.9 126.973C1947.9 126.973 1961.92 127.916 1968.93 127.41C1976.02 126.904 1984.26 126.795 1994.68 129.885C2005.1 132.97 2012.31 140.402 2012.31 140.402C2012.31 140.402 2010.11 131.407 2002.46 125.277C1994.81 119.146 1963.79 113.256 1956.28 112.154C1963.35 113.006 1996.05 113.487 2001.56 114.228C2009.15 115.24 2029.41 116.121 2029.41 116.121C2029.41 116.121 2025.49 114.348 2021.44 112.325C2017.4 110.301 2011.83 107.016 2011.83 107.016C2011.83 107.016 2034.57 104.932 2047.59 103.089C2063.81 100.815 2060.91 87.3623 2060.91 87.3623C2060.91 87.3623 2056.1 90.3975 2028.05 88.8849C2000.01 87.3623 1989.59 71.0547 1980.27 67.5487C1970.96 64.0428 1964.85 64.7039 1951.52 66.0261L1951.43 66.0662ZM149.376 65.5082C143.115 65.5122 133.95 65.5925 130.343 66.0832C124.774 66.8425 116.72 74.1569 110.91 78.2038C105.091 82.2506 101.004 82.7014 93.3807 82.7014C85.7878 82.7014 74.9494 92.0072 65.8339 94.0206C58.241 96.5549 39.1887 90.0639 25.4654 90.5648C11.8423 91.0706 6.43311 95.7936 6.43311 95.7936C6.43311 95.7936 11.9825 94.9763 17.2515 96.7473C22.5605 98.5203 30.3737 104.17 36.4841 107.465C42.5544 110.751 50.8084 111.572 64.9324 109.549C79.0564 107.526 97.4876 102.237 108.607 101.475C119.725 100.714 126.337 112.895 126.337 112.895C126.337 112.895 117.532 113.877 113.515 114.387C109.468 114.893 102.997 116.761 98.1888 118.284C93.3807 119.806 90.8263 121.179 90.8263 121.179C90.8263 121.179 93.5209 122.21 103.648 122.461C113.765 122.714 125.084 121.792 125.084 121.792C125.084 121.792 117.281 131.558 106.453 133.411C100.883 134.934 91.5275 134.583 77.6039 133.574C63.6803 132.562 55.5665 133.427 46.1505 139.494C36.7946 145.564 29.923 147.628 29.923 147.628C35.7629 149.25 51.4595 146.741 63.2796 142.94C77.5037 137.831 85.1166 147.187 85.1166 147.187C85.1166 147.187 79.8377 149.922 76.8025 152.205C73.7674 154.479 73.1964 159.618 63.5801 164.426C53.9137 169.224 49.3559 165.324 40.0401 165.979C31.1551 165.378 25.7158 169.815 25.7158 169.815C25.7158 169.815 35.272 168.992 47.6531 171.518C61.0758 173.061 75.0996 167.862 89.5241 166.089C103.949 164.316 122.48 163.394 126.587 161.872C130.634 160.349 137.606 155.11 143.215 154.099C144.698 153.83 148.905 151.634 152.431 150.452C150.518 142.218 150.157 135.126 150.297 130.318C150.477 123.877 154.054 94.5575 154.054 86.4438C154.054 81.4253 151.349 72.0193 149.306 65.5082H149.376ZM1979.48 100.167C1981.44 100.234 1990.6 102.421 1994.21 101.83C1998.12 101.198 2002.55 104.104 2000.28 106.127C1998 108.151 1993.83 105.115 1991.8 104.104C1989.78 103.092 1985.48 101.569 1983.33 101.569C1981.17 101.569 1980.29 102.962 1978.52 101.949C1976.75 100.937 1979.15 100.176 1979.15 100.176C1979.22 100.16 1979.32 100.156 1979.45 100.16L1979.48 100.167ZM116.32 147.247C119.465 147.265 120.957 147.834 120.957 147.834C120.957 147.834 120.831 151.38 115.899 152.392C110.971 153.403 106.032 152.771 106.032 152.771C106.032 152.771 106.918 148.093 112.613 147.462C114.036 147.304 115.268 147.249 116.32 147.255V147.247Z" fill="#FF3353"/>
<path d="M161.396 33.2104C158.071 33.2084 156.137 33.4378 155.055 33.6772C149.716 33.9817 151.78 41.6908 154.734 50.9065C157.489 59.501 159.282 69.7384 160.383 73.6451C161.455 76.1493 165.302 82.0493 165.392 88.8708C165.481 95.6724 164.14 103.396 164.586 107.603C164.988 111.389 166.689 121.226 167.16 123.229C172.569 119.924 182.185 118.391 191 117.91C204.924 117.151 231.569 118.505 262.422 119.262C293.274 120.022 347.967 121.346 353.276 117.049C358.585 112.751 372.408 110.788 390.339 114.334C408.269 117.88 429.806 113.511 442.227 110.217C454.648 106.931 501.527 112.872 509.641 112.371C517.735 111.865 545.602 104.087 551.112 103.836C556.681 103.583 571.546 108.584 580.862 110.608C590.218 112.631 624.336 110.671 632.45 109.406C640.543 108.144 694.956 102.574 694.956 102.574C694.956 102.574 705.974 101.944 718.395 100.431C730.817 98.9079 741.735 90.9043 749.348 90.9444C761.669 91.0076 764.874 93.098 778.998 93.098C792.421 93.098 818.565 91.7057 818.565 91.7057C818.565 91.7057 825.527 97.4655 842.005 97.4655C858.483 97.4655 856.931 98.2868 895.396 97.5281C933.861 96.7688 973.829 89.3642 995.365 88.3525C1016.9 87.3408 1040.74 95.5047 1068.29 95.2442C1097.04 94.1724 1128.09 97.2075 1132.7 96.1928C1137.26 95.1811 1131.63 87.8487 1137.32 87.0874C1142.57 86.3281 1156.45 95.8121 1168.27 94.2996C1180.19 92.777 1205.83 91.575 1219.26 92.5867C1232.68 93.5984 1241.69 97.8356 1258.62 96.0626C1275.55 94.2895 1304.3 100.139 1323.23 98.1461C1344.87 95.8723 1371.21 98.5888 1394.55 102.634C1417.79 106.681 1433.52 112.25 1458.26 111.739C1483 111.233 1513.76 104.597 1513.76 104.597C1513.76 104.597 1514.26 108.233 1521.35 111.268C1528.43 114.304 1548.59 109.345 1563.32 110.359C1577.94 111.371 1594.67 112.432 1610.4 108.636C1626.13 104.839 1679.02 106.643 1719.58 107.404C1760.15 108.165 1770.37 111.441 1791.11 113.204C1811.84 114.977 1866.33 113.068 1891.28 114.08C1916.32 115.092 1924.13 121.783 1928.44 124.297C1931.19 129.907 1935.57 117.997 1937.43 114.661C1939.58 110.724 1940.83 98.9344 1941.73 93.7256C1942.63 88.5368 1944.47 83.0074 1946.43 73.6916C1948.39 64.3858 1949.34 59.9683 1949.34 59.9683C1949.34 59.9683 1949.34 58.7062 1949.85 50.352C1950.36 42.0078 1949.34 42.3785 1937.93 42.1281C1933.4 42.7661 1929.25 43.2399 1929.25 43.2399C1929.25 43.2399 1933.53 51.6843 1933.79 56.7629C1934.04 61.541 1934.34 64.6863 1932.38 66.299C1930.42 67.9118 1928.98 80.423 1929.51 88.1361C1930.05 95.8292 1923.98 109.572 1920.22 111.275C1916.47 112.968 1900.39 110.113 1892.17 108.681C1883.95 107.249 1830.47 106.537 1792.2 104.213C1753.94 101.889 1701.35 100.457 1684.02 98.4937C1667.19 96.5304 1645.35 99.0296 1621.01 100.637C1596.67 102.25 1562.71 104.213 1550.19 103.322C1537.67 102.427 1545.54 95.2682 1542.68 95.2682C1539.81 95.2682 1535.71 95.268 1513.13 98.664C1490.59 102.06 1493.49 109.182 1457.33 110.284C1421.17 111.386 1391.72 86.4432 1375.39 84.7404C1359.07 83.0375 1336.53 91.1813 1320.3 91.001C1304.07 90.8217 1263.81 87.2446 1244.07 87.0643C1224.44 86.885 1175.15 90.2797 1164.84 90.2797C1154.42 90.2797 1143.9 82.5867 1132.98 84.1995C1122.06 85.8122 1100.03 89.3882 1076.79 88.4967C1053.55 87.6022 1032.11 82.5967 1007.37 82.4164C982.728 82.2371 968.003 87.4249 951.074 85.9925C934.045 84.5601 915.514 81.1643 889.37 85.6349C863.225 90.1025 834.476 90.2828 822.156 88.1391C809.835 85.9955 775.276 84.9237 754.04 84.9237C732.704 84.9237 737.712 90.2928 721.084 95.6419C704.456 100.991 690.332 101.191 662.985 101.722C635.639 102.259 594.97 100.47 573.734 96.3531C552.498 92.2361 539.576 99.9291 515.435 105.829C491.294 111.729 455.133 105.829 442.411 105.472C429.69 105.114 420.574 111.021 401.642 109.769C382.71 108.517 361.073 105.652 354.061 106.724C347.089 107.795 311.489 106.187 294.66 106.366C277.832 106.545 220.935 111.375 214.925 111.375C208.915 111.375 193.489 110.659 189.482 109.231C185.545 107.798 184.473 91 183.041 81.6841C181.608 72.3784 172.824 68.7622 168.717 59.6467C166.212 54.0973 170.71 42.8182 176.239 34.6042C171.812 33.6266 164.319 33.3221 161.013 33.3221L161.396 33.2104ZM1050.91 45.3309C1026.46 45.2308 1003.43 47.2442 977.882 50.4596C943.924 54.7569 845.657 49.3879 805.589 49.7455C765.922 50.1031 716.839 62.6674 716.839 62.6674C716.839 62.6674 749.394 61.235 792.668 59.8025C835.941 58.3701 936.912 70.2202 960.953 68.3871C984.994 66.554 1026.46 58.3701 1070.14 59.0813C1113.41 59.7965 1174.32 65.5222 1214.38 62.2968C1254.45 59.0813 1299.53 65.5122 1343.6 66.2334C1387.68 66.9546 1420.53 52.3098 1426.64 48.7037C1432.72 45.1276 1377.26 50.1361 1352.62 53.3516C1327.98 56.567 1269.28 52.995 1240.43 49.4149C1211.08 45.8388 1111.21 48.3431 1077.15 46.1994C1068.57 45.6625 1060.22 45.3961 1052.11 45.362L1050.91 45.3309ZM1611.86 51.3011C1580.5 51.4784 1535.93 57.762 1507.68 60.4766C1474.42 63.6921 1458 51.5315 1458 51.5315C1458 51.5315 1468.41 71.9662 1494.86 70.4636C1521.3 69.0312 1552.06 66.527 1600.04 63.6621C1648.32 60.7972 1681.98 73.6791 1727.25 79.7895C1772.73 85.8698 1812.8 84.0867 1836.44 81.5825C1859.68 79.0782 1891.13 79.7895 1906.56 79.7895C1921.98 79.7895 1908.7 76.9246 1891.13 74.0697C1873.6 71.2049 1797.77 68.35 1764.92 67.6288C1731.66 66.9136 1657.74 54.7069 1627.68 51.9021C1622.99 51.4553 1617.67 51.2781 1611.86 51.3111V51.3011ZM513.995 56.7904C478.735 56.7934 442.674 58.1126 429.251 60.1161C407.814 63.3315 345.509 71.235 319.064 71.235C292.218 71.235 235.722 65.1546 217.892 68.0195C199.962 70.8843 190.345 84.4474 190.345 84.4474C190.345 84.4474 202.165 83.7322 220.396 81.9431C238.627 80.1501 273.687 88.384 315.157 89.8165C356.627 91.2489 370.952 83.3755 401.403 81.2319C431.855 79.0883 471.122 75.5122 499.77 71.2149C528.419 66.9176 619.974 70.1431 632.996 70.1431C646.219 70.1431 663.448 60.8473 654.433 61.9191C645.488 62.9909 613.664 61.2029 572.193 58.3431C556.667 57.2713 535.731 56.8004 514.596 56.8004L513.995 56.7904ZM163.4 122.802C163.22 113.857 162.443 110.281 162.177 105.072C161.909 99.7934 164.491 89.7463 161.901 83.8363C159.307 77.8461 156.622 76.3236 156.352 70.0128C156.291 68.5804 155.541 66.2865 155.393 65.2147C152.999 65.2622 150.204 65.416 146.057 65.5132C146.686 69.8606 149.102 83.8443 150.354 91.2569C151.787 99.6612 147.309 123.111 144.985 131.726C142.661 140.31 149.283 148.354 148.561 148.855C147.84 149.356 143.733 149.212 138.905 150.998C134.077 152.791 129.599 159.944 119.071 161.216C108.543 162.488 102.042 162.468 91.1239 161.932C80.2054 161.395 79.5042 164.436 70.8895 167.652C62.305 170.867 52.8589 170.156 40.8385 168.904C28.8181 167.652 25.7129 169.794 25.7129 169.794C25.7129 169.794 34.648 171.838 47.0491 174.362C59.4702 176.896 85.6145 177.497 100.039 175.734C114.463 173.961 124.38 166.869 128.387 165.317C136.641 161.29 145.416 163.514 150.925 160.629C158.098 155.41 176.769 151.884 186.386 145.303C196.002 138.721 195.581 134.785 195.581 134.785C195.581 134.785 188.97 136.197 183.861 137.209C179.414 138.097 167.433 137.005 165.029 133.503C162.615 130.007 163.296 125.669 163.256 122.985L163.4 122.802ZM6.13264 95.6564C6.13264 95.6564 11.7722 95.0163 16.8508 97.6798C21.8994 100.344 28.7711 108.498 34.8814 111.804C40.9517 115.089 50.5079 116.001 64.6319 113.977C78.7559 111.954 96.7865 103.66 107.905 102.859C119.024 102.099 126.036 112.715 126.036 112.715C126.037 112.704 123.342 101.997 112.413 100.194C101.494 98.401 74.8493 106.635 57.8204 106.455C40.7915 106.276 23.2617 95.7365 18.4536 95.0353C13.6454 94.3341 10.1995 95.0068 6.03247 95.6514L6.13264 95.6564ZM1929.4 133.22C1921.97 134.252 1915.07 134.833 1909.36 134.673C1900.01 135.178 1894.84 138.489 1900.45 145.591C1906.02 152.673 1923.49 154.476 1936.11 158.513C1948.73 162.56 1972.47 174.44 1983.89 170.634C1995.31 166.827 2004.92 166.837 2013.84 167.348C2022.7 167.854 2029.37 165.675 2029.37 165.675C2029.37 165.675 2024.56 165.519 2020.27 165.519C2015.97 165.519 2006.25 163.556 2001.24 163.556C1996.14 163.556 1993.01 164.898 1979.1 164.898C1965.18 164.898 1961.97 159.529 1952.96 155.241C1943.94 150.954 1928.42 152.377 1927.01 150.944C1925.58 149.512 1927.91 146.477 1928.98 142.54C1929.6 140.246 1929.51 135.929 1929.46 133.274L1929.4 133.22Z" fill="#FD2141"/>
<path d="M1108 11.173C1108 11.173 1115.08 18.3853 1117.87 15.9812C1120.65 13.5771 1108 11.173 1108 11.173ZM715.336 13.8276C710.208 13.7402 704.518 14.124 699.61 15.2399C699.61 15.2399 707.663 15.4182 714.134 15.2399C720.575 15.0606 727.958 17.2934 737.073 18.4554C746.199 19.6174 742.973 17.9195 740.92 17.3836C738.866 16.8467 729.801 15.3301 723.691 14.4286C721.377 14.093 718.522 13.8726 715.446 13.8205L715.336 13.8276ZM1356.42 24.6459C1352.1 24.6969 1348.37 25.1528 1347.88 26.479C1347.88 26.479 1349.65 26.6062 1353.82 26.6062H1374.96C1379.13 26.6062 1381.92 25.8469 1381.92 25.8469C1381.92 25.8469 1374.32 25.9732 1370.7 25.4673C1368.64 25.1828 1362.05 24.5778 1356.47 24.6439L1356.42 24.6459ZM410.819 32.6294C407.394 32.663 403.287 32.9099 400.402 33.4017C394.592 34.3854 386.779 35.906 387.179 38.5004C387.179 38.5004 397.497 37.068 402.706 35.906C407.985 34.744 417.331 33.8525 417.13 33.1313C416.996 32.7737 414.265 32.5934 410.85 32.6264L410.819 32.6294ZM265.573 36.7064C259.493 36.7064 253.853 40.643 253.853 40.643C253.853 40.643 257.609 39.8377 260.655 38.7598C263.7 37.688 267.636 38.4914 274.278 39.2958C280.899 40.1011 286.098 39.2055 287.2 38.848C288.271 38.4904 284.966 38.4012 282.011 38.5795C279.056 38.7588 271.693 36.6963 265.683 36.6963L265.573 36.7064ZM156.388 37.9585C154.014 37.9138 151.159 38.0917 151.159 38.0917L149.776 39.1635L152.551 51.4844L155.947 62.403L158.491 74.6237L161.707 80.8443L163.54 86.7443L163.986 94.9282L162.954 102.441L163.266 109.773L163.578 112.939C163.578 112.939 167.244 111.647 169.588 111.326C171.932 111.009 178.503 109.713 179.705 109.142C180.937 108.573 182.77 107.279 182.77 107.279C182.77 107.279 178.754 108.133 176.79 108.672C174.827 109.209 170.339 110.154 168.256 110.094C166.172 110.031 164.239 109.714 164.239 109.714C164.239 109.714 163.701 104.816 163.89 103.363C164.08 101.911 164.364 97.0428 164.364 97.0428C164.364 97.0428 167.66 96.8605 170.164 96.8154C172.668 96.7707 179.42 96.4147 180.782 96.1012C182.164 95.7876 182.705 95.0694 182.705 95.0694C182.705 95.0694 177.206 95.5162 174.882 95.5603C172.558 95.6049 164.665 94.9342 164.665 94.9342C164.665 94.9342 164.798 88.3631 164.575 87.1109C164.351 85.8588 163.363 82.7736 163.363 82.7736C163.363 82.7736 172.658 82.8622 176.084 82.9518C179.48 83.0412 181.984 81.2089 181.544 80.9384C181.097 80.67 174.482 81.1618 171.226 81.1168C167.961 81.0721 162.682 80.716 162.682 80.716L159.416 73.6541C159.416 73.6541 163.844 74.191 166.929 73.6541C170.014 73.1172 174.622 72.6223 176.455 72.6223C178.288 72.6223 181.153 70.7492 178.689 70.4787C176.225 70.2102 171.046 70.7031 168.271 70.8814C165.456 71.0597 159.196 70.8814 159.196 70.8814L156.471 60.063C156.471 60.063 164.475 59.9278 169.193 59.8827C173.931 59.838 182.115 58.5905 185.32 58.5905C188.535 58.5905 190.549 58.5013 189.838 58.278C189.122 58.0546 184.829 57.2943 180.852 57.3835C176.876 57.4728 167.229 57.7861 164.124 57.7861C161.019 57.7861 156.12 57.4285 156.12 57.4285L153.215 48.7037C153.215 48.7037 155.81 48.3021 158.765 48.7487C161.72 49.1955 166.498 50.0409 169.283 49.9107C172.057 49.7764 174.201 49.3287 173.219 49.1945C172.236 49.0602 167.319 47.722 165.256 47.6719C163.202 47.6272 162.802 46.6872 161.009 46.6401C159.216 46.5955 152.785 47.0428 152.785 47.0428L151.262 40.1511C151.262 40.1511 152.604 38.9891 154.528 39.0292C156.451 39.0739 162.311 38.6706 162.351 38.2679C162.396 37.8652 158.865 38.0445 156.491 37.9994L156.388 37.9585ZM1950.43 51.0808C1950.43 51.0808 1944.42 54.186 1940.82 55.0074C1937.21 55.8298 1930.4 55.3861 1930.1 56.0793C1929.78 56.7744 1937.24 57.091 1941.72 56.6482C1946.2 56.2055 1950.32 54.5647 1950.32 54.5647L1950.01 58.9321L1949.25 63.9907C1949.25 63.9907 1946.78 65.5032 1945.14 66.0141C1943.5 66.52 1937.24 66.7103 1936.99 67.2762C1936.73 67.8452 1939.14 67.7821 1942.17 67.8452C1945.21 67.9085 1948.57 67.4656 1948.57 67.4656L1947.36 74.5476C1947.36 74.5476 1926.73 74.4839 1925.63 74.8C1924.61 75.1165 1928.34 76.6331 1931.13 76.7634C1933.91 76.8896 1946.65 77.0178 1946.65 77.0178L1944.82 84.0998C1944.82 84.0998 1938.05 84.2891 1936.47 84.3522C1934.89 84.4154 1927.43 83.3405 1927.5 83.8474C1927.56 84.3533 1933.13 85.2998 1935.15 85.8107C1937.18 86.3166 1944.26 86.0631 1944.26 86.0631L1942.29 94.9783C1942.29 94.9783 1939.2 95.0409 1937.81 95.0409C1936.41 95.0409 1933.89 94.535 1932.43 94.2816C1930.98 94.0282 1924.14 92.5787 1924.14 93.2098C1924.14 93.8409 1928.44 94.9126 1930.53 95.6138C1932.62 96.309 1942.05 97.0663 1942.05 97.0663L1940.53 108.586C1940.53 108.586 1934.84 108.775 1932.94 108.775C1931.04 108.775 1926.24 107.383 1926.11 107.889C1925.98 108.395 1927.94 109.411 1930.28 109.972C1932.63 110.541 1939.9 110.794 1939.9 110.794L1937.19 118.827L1934.78 121.862C1934.78 121.862 1930.48 119.398 1930.22 120.029C1929.97 120.661 1931.11 120.854 1932.19 121.993C1933.26 123.135 1934.15 125.469 1934.15 125.469L1936.42 123.004L1939.9 115.411L1941.79 108.9L1943.44 95.9785L1947.67 78.7492L1950.08 64.7254L1950.71 56.8821L1950.96 51.2525L1950.43 51.0808ZM139.359 75.5222C138.067 75.5581 136.584 75.6986 135.122 75.933C131.235 76.559 128.951 76.558 128.901 76.9647C128.856 77.3674 133.278 77.9503 136.374 77.5026C139.459 77.0558 143.346 77.138 143.215 76.2505C143.137 75.6955 141.512 75.4672 139.359 75.5263V75.5222ZM1147.07 82.7946C1146.72 82.7692 1146.48 82.8572 1146.36 83.0921C1146.36 83.0921 1152.17 87.4695 1156.29 89.3527C1160.41 91.2259 1167.51 91.0556 1172.62 89.0843C1177.81 87.1209 1183.64 87.742 1194.26 88.3681C1204.87 88.9941 1221.8 88.0105 1221.8 87.1159C1221.8 86.2214 1213.13 87.2048 1209.78 87.3843C1206.48 87.5637 1185.34 85.8618 1180.13 85.8618C1174.85 85.8618 1169.31 88.366 1162.9 88.5464C1157.26 88.7026 1149.48 82.9669 1147.08 82.7966L1147.07 82.7946ZM1349.41 88.2238C1343.62 88.2308 1336.29 89.3457 1333.79 90.5678C1331 91.9602 1294.42 88.4141 1292.22 90.4426C1292.22 90.4426 1306.64 92.0854 1312.75 92.3358C1318.82 92.5892 1333.39 91.9581 1342.2 90.4426C1351.06 88.92 1371.45 92.466 1376.86 93.4777C1382.3 94.4894 1397.49 94.7398 1399.6 94.3642C1401.75 93.9846 1388.38 92.2106 1383.87 92.2106C1379.44 92.2106 1357.73 88.6645 1351.72 88.2939C1350.97 88.2465 1350.18 88.2245 1349.35 88.2254L1349.41 88.2238ZM923.69 88.5443C923.69 88.5443 918.762 90.1872 915.847 91.5795C912.942 92.9719 904.327 92.5912 898.016 92.5912C891.696 92.5912 872.974 93.8533 872.974 93.8533C872.974 93.8533 894.811 93.7271 904.628 93.8533C914.364 93.9795 916.147 92.9679 918.251 92.3308C920.404 91.6987 923.69 88.5343 923.69 88.5343V88.5443ZM114.316 90.5978C109.178 90.6872 110.47 92.7415 114.091 93.1922C117.717 93.639 125.61 96.9486 125.61 96.9486C125.61 96.9486 119.48 90.5077 114.391 90.5978H114.316ZM2041.59 92.8817C2040.24 92.7335 2032.03 94.835 2024.36 94.6146C2015.63 94.3622 2005.53 92.9718 2005.53 92.9718C2004.26 94.865 2016.64 97.0187 2022.35 96.8885C2028.04 96.7623 2040.79 94.1038 2041.69 93.0921C2041.8 92.9659 2041.75 92.8998 2041.55 92.8787L2041.59 92.8817ZM27.1684 94.0036C26.6314 96.0571 37.0051 95.7065 43.4961 97.76C49.9871 99.8135 55.5165 103.219 57.3195 101.697C59.1126 100.174 51.5998 96.9586 46.8017 96.2374C41.9735 95.5222 27.2685 94.0036 27.2685 94.0036H27.1684ZM1519.7 101.586C1519.42 101.599 1519.15 101.661 1518.89 101.784C1516.84 102.767 1518.98 105.45 1522.38 106.522C1525.77 107.594 1533.8 107.864 1537.6 107.594C1541.36 107.325 1544.49 106.432 1544.49 106.432C1543.78 106.432 1531.57 106.879 1527.67 105.27C1524.3 103.857 1521.69 101.493 1519.71 101.583L1519.7 101.586ZM1733.06 102.547C1730.65 102.587 1729.11 102.745 1729.14 103.093C1729.14 103.093 1730.28 103.726 1734.2 103.852C1738.11 103.979 1748.52 104.611 1754.43 104.484C1760.37 104.358 1783.68 106.127 1783.68 106.127C1783.68 106.127 1764.95 103.603 1759.54 103.473C1755.46 103.378 1740.31 102.431 1733.09 102.547H1733.06ZM486.949 103.062C477.032 103.094 467.115 103.345 466.113 103.345C464.09 103.345 470.922 105.239 481.64 105.369C492.358 105.495 507.684 104.107 507.684 104.107C506.735 103.221 496.866 103.035 486.949 103.065V103.062ZM292.619 113.019C285.958 113.048 276.992 113.393 274.688 113.862C274.688 113.862 274.868 114.264 276.652 114.398C278.445 114.532 292.278 113.996 297.687 114.086C303.097 114.175 312.913 114.398 313.013 113.95C313.058 113.504 303.668 113.369 298.188 113.101C296.826 113.034 294.863 113.009 292.649 113.019H292.619ZM1951.43 157.895C1951.1 157.921 1950.92 158.036 1950.94 158.263C1952.9 159.157 1961.16 162.109 1965.07 163.982C1969 165.856 1971.69 166.397 1974.19 165.775C1976.7 165.149 1977.41 162.38 1976.6 162.38C1975.8 162.38 1974.64 164.523 1972.31 164.794C1969.98 165.062 1968.28 164.079 1964.61 162.38C1961.64 160.997 1954.3 158.082 1951.79 157.902C1951.65 157.892 1951.52 157.89 1951.4 157.898L1951.43 157.895Z" fill="#1A1A1A"/>
</svg>
