<svg version="1.1" viewBox="0 0 50 50" xmlns="http://www.w3.org/2000/svg">
 <path d="m24 2.66c-9.66 0.252-18.5 7.95-18.5 16.3 0 8.33 4.55 12.7 3.91 14.2-0.631 1.52-2.08 5.05 1.71 6.06 3.79 1.01 6 2.33 6.12 3.03 0.126 0.694 0.0332 3.47 0.0332 3.47s-0.0636 0.68 1.03 0.695c1.09 0.015 1.25-0.615 1.25-0.615v-2.68s0.127-0.475 0.885-0.475c0.758 0 1.2 0.394 1.2 0.394v3.57s0.142 0.379 1.21 0.379c1.07 0 1.28-0.332 1.28-0.332v-3.43s-0.0153-0.615 1.11-0.615c1.12 0 1.29 0.426 1.29 0.426v3.5s0.22 0.807 1.61 0.807c1.39 0 1.33-0.807 1.33-0.807v-3.23s0.0634-0.711 1.14-0.711c1.07 0 1.18 0.711 1.18 0.711v3.06s0.0478 0.49 1.12 0.49c1.07 0 0.947-0.426 0.947-0.426v-3.93s0.231-1.47 2.15-1.82c1.92-0.357 6.45-1.41 6.61-3.33 0.156-1.92-2.08-3.41-1.63-4.66s4.87-5.15 4.87-12.7-5.11-11.6-5.11-11.6l-0.631 2.84-3.66 0.062-0.252 4.11-4.8 0.062 2.9-2.08-1.89-4.04 5.62-0.314 0.441-2.71s-4.8-3.98-14.5-3.72zm10.2 21.4c2.15 0.063 5.11 2.53 4.67 4.67-0.442 2.15-2.08 3.41-4.93 3.28-2.84-0.126-5.05-1.07-5.05-3.66s3.16-4.36 5.3-4.29zm-17.8 0.125c3.66 0.063 5.56 2.46 5.24 4.61-0.316 2.15-2.71 3.41-5.62 3.35-2.9-0.063-3.5-1.2-4.1-2.4-0.6-1.2 0.821-5.62 4.48-5.56zm8.65 4.61c1.14-0.316 4.73 6.76 3.6 7.96-1.92 1.14-5.58 0.854-6.69-0.19-0.834-0.787 1.96-7.45 3.09-7.77z" fill="#1e1e1e"/>
</svg>
