<svg version="1.1" viewBox="0 0 50 50" xmlns="http://www.w3.org/2000/svg">
 <g>
  <path d="m28.9 2.32s-0.0741 3.81-2.24 5.98c-2.17 2.17-2.84 5.68-1.42 8.75 1.42 3.07 2.24 8.07-0.824 7.7-3.07-0.374-0.896-6.8-1.49-9.2-0.598-2.39-5.01-4.56-5.01-4.56s0.449 1.35 0.674 2.92c0.224 1.57-2.24 3.74-3.44 5.01-1.2 1.27-2.02 7.7-2.02 7.7s-1.27-0.897-2.24-2.39c-0.972-1.5 0.523-3.66 1.35-6.21 0.822-2.54-2.39-5.68-2.39-5.68s1.2 2.39 0.6 4.71c-0.598 2.32-3.59 6.5-3.37 10 0.224 3.51-5.76 12.7-5.76 12.7l2.36 4.14 46.3-0.104v-10.1c-0.919-0.47-2.02-1.1-2.71-1.75-1.35-1.27 0.449-4.78 0.785-6.47 0.336-1.68-0.598-3.85-0.598-3.85s-0.822 2.77-1.05 4.56c-0.224 1.79-2.09 3.21-2.62 3.14-0.523-0.0748 0-3.36 0-5.83 0-2.47-2.24-4.04-3.21-5.46-0.972-1.42 0.898-5.01 0.898-5.01s-2.47 1.79-2.54 3.66c-0.0748 1.87 1.8 2.99 1.95 5.01 0.15 2.02-2.02 2.02-3.44 2.99-1.42 0.972-2.32 4.93-2.32 4.93s-0.523-2.84 0.225-5.16c0.748-2.32 1.12-7.55-2.24-9.57-3.36-2.02-3.22-4.64-2.54-7.25 0.673-2.62-1.64-5.31-1.64-5.31z" fill="#e70022"/>
  <path d="m28.3 14.5s1.94 2.02 2.47 4.49c0.523 2.47-2.47 5.38-4.11 6.73-1.64 1.35-3.81 6.28-6.06 6.05-2.24-0.224-0.298-4.86 0.449-7.47 0.748-2.62 0-6.06 0-6.06s0.15 1.94-1.35 5.08-4.11 4.04-5.16 5.16c-1.05 1.12-2.99 5.16-3.44 4.63-0.449-0.523 0.672-4.34 0.672-4.34s-2.99 0.973-4.56 2.54c-1.57 1.57-3.66 5.91-3.66 5.91s1.2-5.16 1.2-6.13c0-0.972-1.64-1.79-1.64-1.79s0.524 2.32-1.94 4.41c-0.306 0.26-0.691 0.477-1.13 0.658v15.3l9.91 0.359h40.1v-14.5c-0.0703-0.0115-0.13-0.017-0.201-0.0293-2.17-0.374-3.44-2.84-3.44-2.84s0.448 3.14-3.44 1.72c-3.89-1.42-2.77-8.97-2.77-8.97s-2.09 1.42-3.29 3.14c-1.2 1.72-0.748 4.26-0.748 4.26-1e-6 0-2.47 0.0745-3.37-1.57-0.897-1.64 0.747-11.4-0.225-13.2-0.972-1.87-4.26-3.51-4.26-3.51z" fill="#f60"/>
  <path d="m33 22.7s-3.74 2.77-5.23 4.93c-1.5 2.17-3.22 7.25-6.65 6.24-3.44-1.01-1.23-9.72-1.23-9.72s-1.12 3.55-2.32 5.12c-1.2 1.57-3.48 3.14-4.52 4.49-1.05 1.35-2.13 6.02-2.13 6.02s-0.598-3.44-0.785-4.34c-0.187-0.897-1.27-2.8-1.27-2.8s-3.65 4.38-4.26 6.43c-0.439 1.48-3.11 3.76-4.57 4.93v0.926l7.11 1.25 35.3 3.44 7.6-3.28v-4.12c-1.55-1.49-3.56-3.21-5.58-4.34-4.19-2.32-5.53-8.82-5.53-8.82 1e-6 0-0.971 0.748-1.49 2.32-0.523 1.57-0.301 3.51-0.301 3.51s-2.39-1.53-3.36-4.04c-0.972-2.5-0.748-8.15-0.748-8.15z" fill="#ffd300"/>
 </g>
 <path d="m30.3 31.3s-2.32 4.93-6.35 5.31-6.88-2.99-6.88-2.99-1.27 5.01-3.96 5.46c-2.69 0.449-4.56-2.69-4.56-2.69s-4.56 5.68-6.13 6.05c-0.516 0.123-1.43 0.251-2.4 0.371v7.16h50v-6.04c-1.51-0.533-2.86-1.14-3.27-1.72-1.05-1.5-4.34-4.34-4.34-4.34s-3.44 0.598-5.91-1.05c-2.47-1.64-6.21-5.53-6.21-5.53z" fill="#f9f9f9"/>
 <path d="m22.1 7.4s-0.112-1.23 0.523-2.32c0.635-1.08 1.76-1.94 1.76-1.94s0.411 2.28 0.224 2.92c-0.187 0.635-2.5 1.35-2.5 1.35z" fill="#e70022"/>
 <path d="m43.4 19s-0.935-2.09-0.262-3.18c0.673-1.08 1.38-2.39 1.08-3.03-0.299-0.635-0.299-1.64-0.299-1.64s2.09 2.8 2.06 3.74c-0.0374 0.935-2.58 4.11-2.58 4.11z" fill="#e70022"/>
</svg>
