<svg version="1.1" viewBox="0 0 50 50" xmlns="http://www.w3.org/2000/svg">
 <path d="m25.9 8.6c-14.7 0-25.5 17.5-25.5 17.5 8.32e-6 0 11.9 15.6 24.9 15.6 13.1 0 24.3-15.8 24.3-15.8s-9.09-17.3-23.8-17.3zm-0.473 2.15c7.99-5.6e-5 14.5 6.44 14.5 14.4-3e-5 7.95-6.48 14.4-14.5 14.4-7.99 5.6e-5 -14.5-6.44-14.5-14.4 3e-5 -7.95 6.48-14.4 14.5-14.4zm-0.211 2.31c-4.52 0-7.56 2.31-7.56 2.31s3.37-0.899 7.82-0.367c4.49 0.536 8.93 4.67 8.93 9.77 0 5.09-2.83 9.24-8.51 9.24-4.36 0-7.98-3.36-7.98-6.25 0-2.89 1.21-5.67 3.62-6.41 2.42-0.735 4.83 0.369 4.46 2-0.368 1.63-1.84 1.1-3.26 1.68-1.42 0.578-2.21 1.63-2.1 3.47 0.0899 1.57 1.94 3.18 4.23 3.18 2.28 0 6.28-2.07 6.28-6.28 0-4.2-3.62-7.56-7.67-7.56-4.04 0-8.72 3.52-8.72 9.35 0 5.83 5.2 9.61 10.9 9.61s11.2-3.26 11.2-11.6-7.14-12.2-11.7-12.2z" fill="#1e1e1e"/>
</svg>
