<svg version="1.1" viewBox="0 0 17.74 37.76" xmlns="http://www.w3.org/2000/svg">
 <g transform="translate(147.2 21.99)">
  <g transform="translate(-713.4 -209.6)">
   <path transform="scale(.2646)" d="m2167 717.7c-2.548 3.268-4.102 7.502-3.665 11.94 0.3936 3.992 2.595 6.936 4.754 9.375l-3.197 1.484s-1.512 0.8104-2.627 2.213c-1.115 1.403-2.204 3.56-2.738 6.607-0.6944 3.957 0.9962 7.444 2.938 10.35 1.941 2.905 4.347 5.417 6.164 7.367 2.085 2.1 2.714 5.46 0.6703 6.123-1.851 0.5636-3.735-1.174-3.987-2.687-0.2262-1.351 0.5674-4.72 0.5674-4.72l-4.863 2.624c-1.159-7.318-7.03-9.616-7.03-9.616s1.173 4.992-0.9671 8.928c-2.14 3.936-2.892 4.92-4.847 7.967-1.956 3.047-4.485 6.952-6.723 12.29-5.001 11.92 2.916 22.46 2.916 22.46l2.847 3.824c-0.7161 1.698-1.572 5.094-1.572 8.998 0 15.68 12.82 28.49 28.49 28.49s28.5-12.82 28.5-28.49c0-4.365-1.211-8.374-2.982-12.08l1.426-1.426s2.292-2.252 3.838-5.676c1.576-3.49 2.569-8.1 1.455-12.56-0.7181-2.872-2.466-5.378-4.283-8.172-1.817-2.794-2.997-5.516-3.318-6.714-0.321-1.198-0.014-4.669 0.6554-5.93 0.6695-1.261 3.149-4.712 3.149-4.712s-5.919-0.4112-8.734 1.934c0.1444-3.026-0.221-5.183-1.857-7.644-1.636-2.461-7.049-3.337-7.049-3.337 1.005 3.416 1.292 7.557-0.7639 8.684-2.056 1.127-3.748-0.8503-3.647-2.228 0.1014-1.377 0.7665-2.642 1.406-3.182 3.481-2.937 7.141-8.191 6.584-15.1-0.3614-4.477-3.326-7.601-6.113-10.52-2.787-2.917-4.671-5.135-5.999-7.076-1.958-2.862-1.504-6.864-0.4054-10.02s6.209-8.457 6.209-8.457c-8.562 2.253-12.66 5.42-15.21 8.688zm3.607 24.24c1.348 1.421 2.734 2.724 2.983 3.873s0.2523 3.151-1.015 3.535c-1.267 0.3836-2.894-0.7925-3.054-2.434s0.5579-3.34 1.086-4.975zm-11.97 34.8c0.3181 1.518 1.09 2.859 1.684 4.17 0.7359 1.533-0.1592 3.424-1.942 3.349-1.783-0.0752-2.257-2.97-1.394-4.706 0.4356-0.8628 1.061-1.901 1.652-2.812zm30.88 1.402c0.195 2.073 0.9232 3.83 1.559 5.242 1.102 2.752 1.869 7.852-1.608 8.146-3.477 0.2946-3.872-4.69-3.109-7.644 0.492-1.83 1.696-3.775 3.158-5.744z" color="#000000" color-rendering="auto" dominant-baseline="auto" fill="#fff" image-rendering="auto" shape-rendering="auto" solid-color="#000000" style="font-feature-settings:normal;font-variant-alternates:normal;font-variant-caps:normal;font-variant-ligatures:normal;font-variant-numeric:normal;font-variant-position:normal;isolation:auto;mix-blend-mode:normal;paint-order:markers stroke fill;shape-padding:0;text-decoration-color:#000000;text-decoration-line:none;text-decoration-style:solid;text-indent:0;text-orientation:mixed;text-transform:none;white-space:normal"/>
   <path transform="scale(.2646)" d="m2173 716.4s-6.338 6.518-5.713 12.86c0.6251 6.339 8.124 10.8 10.18 14.64 2.054 3.839-0.803 11.34-6.785 8.84-5.982-2.5-3.84-9.107-3.84-9.107s-2.5 1.161-3.393 6.25c-0.8929 5.089 4.554 10.8 8.215 14.73 3.661 3.929 4.821 9.464-0.7148 11.88-5.536 2.411-7.857-4.018-7.857-4.018s-0.8034 2.054-0.625 3.482c0.1786 1.429 3.393 5.268 1.875 8.84-1.518 3.572-8.214 5-10.62 0.2676-2.411-4.732 2.679-9.912 4.107-13.04 1.429-3.125-0.1777-8.125-0.1777-8.125s0.089 2.591-1.25 6.52c-1.339 3.929-7.054 8.838-11.25 18.84-4.196 10 2.5 19.02 2.5 19.02s5.177-4.823 5.98-3.395c0.5087 0.9043-0.7056 4.892-1.688 7.797-1.489 3.198-2.326 6.758-2.326 10.51 0 13.78 11.22 24.99 24.99 24.99s25-11.22 25-24.99c0-6.631-2.606-12.67-6.84-17.15-0.2228-0.8692-0.091-1.743 0.9004-2.318 2.656-1.54 5.402 3.482 5.402 3.482s1.875-1.875 3.125-4.643c1.25-2.768 2.054-7.053 1.25-10.27s-6.608-11.16-8.305-13.75 1.072-7.145 1.072-7.145-2.32 2.055-2.945 5.27c-0.625 3.214 3.48 6.518 3.123 12.77-0.3571 6.25-9.286 8.393-12.14 2.143-2.857-6.25-0.3565-11.43 3.215-16.07 3.572-4.643 1.697-9.82 1.697-9.82s-3.125 7.678-8.482 3.928c-5.357-3.75-3.394-9.732-0.5371-12.14 2.857-2.411 5.804-6.607 5.357-12.14-0.4465-5.536-9.106-11.34-12.59-16.43-3.482-5.089 0.088-12.5 0.088-12.5z" color="#000000" color-rendering="auto" dominant-baseline="auto" fill="#1a1a1a" image-rendering="auto" shape-rendering="auto" solid-color="#000000" style="font-feature-settings:normal;font-variant-alternates:normal;font-variant-caps:normal;font-variant-ligatures:normal;font-variant-numeric:normal;font-variant-position:normal;isolation:auto;mix-blend-mode:normal;paint-order:markers stroke fill;shape-padding:0;text-decoration-color:#000000;text-decoration-line:none;text-decoration-style:solid;text-indent:0;text-orientation:mixed;text-transform:none;white-space:normal"/>
   <circle cx="575.3" cy="217.8" r="5.953" fill="#ff3353" style="paint-order:markers stroke fill"/>
  </g>
 </g>
</svg>
