<svg version="1.1" viewBox="0 0 50 50" xmlns="http://www.w3.org/2000/svg">
 <g fill="#1e1e1e">
  <path d="m27.6 7.94c0.818-0.438 6.63 5.27 7.55 5.4 0.919 0.126 8.05-3.8 8.72-3.16 0.669 0.642-2.96 7.93-2.8 8.85s6.11 6.49 5.7 7.32c-0.404 0.835-8.46-0.366-9.28 0.0723-0.818 0.438-4.28 7.81-5.2 7.68-0.919-0.126-2.27-8.16-2.94-8.8s-8.75-1.66-8.92-2.57c-0.164-0.913 7.06-4.68 7.46-5.51 0.404-0.835-1.13-8.84-0.309-9.27z" style="paint-order:markers stroke fill"/>
  <path d="m7.6 6.4c0.511-0.292 4.3 3.23 4.88 3.29 0.585 0.0642 5.04-2.55 5.48-2.16 0.436 0.396-1.74 5.08-1.62 5.66 0.12 0.576 3.99 4.01 3.74 4.54-0.242 0.537-5.37-0.0853-5.88 0.207-0.511 0.292-2.58 5.03-3.17 4.96-0.585-0.0642-1.58-5.14-2.01-5.53s-5.58-0.9-5.7-1.48c-0.12-0.576 4.4-3.09 4.64-3.63 0.242-0.537-0.868-5.58-0.357-5.88z" style="paint-order:markers stroke fill"/>
  <path d="m14.6 27.5c0.555-0.307 4.58 3.54 5.21 3.62 0.629 0.0781 5.47-2.67 5.93-2.24 0.463 0.433-1.95 5.45-1.83 6.07s4.23 4.38 3.96 4.95c-0.269 0.574-5.78-0.175-6.34 0.132-0.555 0.307-2.86 5.38-3.49 5.3-0.629-0.0781-1.62-5.56-2.08-5.99s-6-1.06-6.12-1.68c-0.12-0.623 4.78-3.26 5.05-3.83s-0.849-6.03-0.294-6.33z" style="paint-order:markers stroke fill"/>
 </g>
</svg>
